<?xml version="1.0" encoding="utf-8"?>
<svg version="1.1" xmlns="http://www.w3.org/2000/svg" width="136.9" height="64.4" viewBox="0 0 136.9 64.4" enable-background="new 0 0 136.9 64.4">
 <polygon points="3.8,56.9 8.4,32.8 0,32.8 1.2,27 24.8,27 23.7,32.8 15.3,32.8 10.7,56.9 " fill="#66cc33"/>
 <path d="M32.7,48.8c-0.3,1.2,0,2.2,1.8,2.2H46l-1.1,5.9h-13c-5.2-0.2-7.1-1.7-6.3-6.6L30.1,27h20.6l-1.1,5.9H35.9
	l-1.1,5.8h12.5l-1.1,5.7H33.6L32.7,48.8z" fill="#66cc33"/>
 <path d="M59.2,48.7c-0.2,1.2,0,2.4,1.9,2.4h10.9l-1.1,5.9H58.3c-5.2-0.2-7.1-1.7-6.3-6.6L56.5,27h6.8L59.2,48.7z" fill="#66cc33"/>
 <path d="M76,44.3L79.3,27h6.8l-3.2,16.5c-1.5,7.8,2.8,7.6,4.2,7.6c1.5,0,5.5,0.3,7-7.6L97.2,27h6.8l-3.4,17.3
	c-2.4,12.4-11.3,13-14.9,13C82.1,57.3,73.6,56.7,76,44.3" fill="#66cc33"/>
 <path d="M124.5,59.1c2,0,4.4-0.3,6-0.8l-1,5.1c-1.5,0.6-3.9,1-5.9,1c-4.6,0-8.5-2.5-8.1-7.1v0c-7.6-1-11.6-6.8-9.9-15.1
	c2.2-11.2,11.3-15.5,18.5-15.5c7.1,0,14.6,4.3,12.5,15.5c-1.5,8.1-7.4,13.7-15,15C121.5,58,122.6,59.1,124.5,59.1 M129.7,42.1
	c1.3-6.6-2.8-9.5-6.8-9.5c-4.1,0-9.2,2.9-10.5,9.5c-1,5.4,1.8,9.3,6.8,9.3C124.3,51.4,128.7,47.5,129.7,42.1" fill="#66cc33"/>
 <polygon points="40.6,16.7 37.3,22.9 42.1,22.9 46.2,16.7 " fill="#66cc33"/>
 <path d="M3,8.7V3.3h2.1v5.2c0,2.4,1.3,2.4,1.7,2.4c0.5,0,1.7,0.1,1.7-2.4V3.3h2.1v5.4c0,3.9-2.7,4.1-3.9,4.1
	C5.7,12.8,3,12.6,3,8.7" fill="#ffffff"/>
 <path d="M18.9,12.7V3.3h2.1c1.2,1.7,2.4,3.4,3.2,5.2V3.3h2.1v9.4h-2c-0.9-1.9-1.9-3.8-3.2-5.6v5.6H18.9z" fill="#ffffff"/>
 <rect x="34.7" y="3.3" width="2.1" height="9.4" fill="#ffffff"/>
 <polygon points="50.2,3.3 52.5,3.3 49.2,12.7 47.3,12.7 44.1,3.3 46.4,3.3 48.3,9.4 " fill="#ffffff"/>
 <path d="M61.9,10.1c0,0.4,0.2,0.7,0.7,0.7h3.6v1.9h-4.1c-1.6,0-2.4-0.5-2.4-2.1V3.3h6.4v1.9h-4.3v1.8h3.9v1.8h-3.9V10.1
	z" fill="#ffffff"/>
 <path d="M79.5,9.4c0.8,1.1,1.6,2.2,2.1,3.2h-2.3c-0.5-0.8-1.2-2-1.9-2.9c-0.3-0.5-0.5-0.6-0.9-0.6h-0.3v3.5h-2.1V3.3H78
	c1.7,0,3,1,3,2.9c0,1.9-1.2,2.6-2,2.6C79.1,8.9,79.5,9.3,79.5,9.4 M77.8,7.4c0.5,0,1-0.4,1-1.2c0-0.7-0.5-1.1-1-1.1h-1.6v2.3H77.8z" fill="#ffffff"/>
 <path d="M88.8,10.1c0.7,0.4,2.1,0.8,3.1,0.8c0.8,0,1.4-0.2,1.5-0.8c0.1-0.7-0.9-1-2-1.3l-0.5-0.2
	c-2.2-0.7-2.2-2.4-2.2-2.7c0-1.6,1.4-2.8,3.7-2.8c0.9,0,2.2,0.3,2.7,0.7v1.8c-1.2-0.4-2-0.6-2.7-0.6c-1.1,0-1.6,0.4-1.6,1
	c0,0,0,0.5,0.7,0.7c0.2,0,0.3,0.1,0.5,0.2c2.1,0.7,3.7,1.2,3.5,3.2c-0.2,2.1-1.6,2.7-3.7,2.7c-1.1,0-2.3-0.3-3.1-0.8L88.8,10.1
	L88.8,10.1z" fill="#ffffff"/>
 <rect x="103.2" y="3.3" width="2.1" height="9.4" fill="#ffffff"/>
 <polygon points="115.5,12.7 115.5,5.1 112.8,5.1 112.8,3.3 120.2,3.3 120.2,5.1 117.6,5.1 117.6,12.7 " fill="#ffffff"/>
 <path d="M129.9,10.1c0,0.4,0.2,0.7,0.7,0.7h3.6v1.9h-4.1c-1.6,0-2.4-0.5-2.4-2.1V3.3h6.4v1.9h-4.3v1.8h3.9v1.8h-3.9
	V10.1L129.9,10.1z M131.3,2.3h-1.5l0.9-2.3h1.8L131.3,2.3z" fill="#ffffff"/>
</svg>